<svg xmlns="http://www.w3.org/2000/svg" version="1.1" xmlns:xlink="http://www.w3.org/1999/xlink" xmlns:svgjs="http://svgjs.dev/svgjs" width="1000" height="999" viewBox="0 0 1000 999"><g transform="matrix(1,0,0,1,-0.2157434402332683,-0.21552769679306039)"><svg viewBox="0 0 343 343" data-background-color="#444444" preserveAspectRatio="xMidYMid meet" height="999" width="1000" xmlns="http://www.w3.org/2000/svg" xmlns:xlink="http://www.w3.org/1999/xlink"><g id="tight-bounds" transform="matrix(1,0,0,1,0.07400000000001228,0.07400000000001228)"><svg viewBox="0 0 342.8515585177538 342.8515585177538" height="342.8515585177538" width="342.8515585177538"><g><svg></svg></g><g><svg viewBox="0 0 342.8515585177538 342.8515585177538" height="342.8515585177538" width="342.8515585177538"><g><path d="M0 171.426c0-94.676 76.75-171.426 171.426-171.426 94.676 0 171.426 76.75 171.426 171.426 0 94.676-76.75 171.426-171.426 171.426-94.676 0-171.426-76.75-171.426-171.426zM171.426 338.951c92.522 0 167.526-75.004 167.525-167.525 0-92.522-75.004-167.526-167.525-167.526-92.522 0-167.526 75.004-167.526 167.526 0 92.522 75.004 167.526 167.526 167.525z" data-fill-palette-color="tertiary" fill="#ffffff" stroke="transparent"></path><ellipse rx="164.56874808852183" ry="164.56874808852183" cx="171.4257792588769" cy="171.4257792588769" fill="#ffffff" stroke="transparent" stroke-width="0" fill-opacity="1" data-fill-palette-color="tertiary"></ellipse></g><g transform="matrix(1,0,0,1,64.84655864529836,114.81361705855214)"><svg viewBox="0 0 213.15844122715708 113.22432440064952" height="113.22432440064952" width="213.15844122715708"><g><svg viewBox="0 0 213.15844122715708 113.22432440064952" height="113.22432440064952" width="213.15844122715708"><g><svg viewBox="0 0 213.15844122715708 113.22432440064952" height="113.22432440064952" width="213.15844122715708"><g transform="matrix(1,0,0,1,0,69.97717481421677)"><svg viewBox="0 0 213.15844122715708 43.247149586432755" height="43.247149586432755" width="213.15844122715708"><g id="textblocktransform"><svg viewBox="0 0 213.15844122715708 43.247149586432755" height="43.247149586432755" width="213.15844122715708" id="textblock"><g><svg viewBox="0 0 213.15844122715708 43.247149586432755" height="43.247149586432755" width="213.15844122715708"><g transform="matrix(1,0,0,1,0,0)"><svg width="213.15844122715708" viewBox="2.45 -38.7 193.93 39.35000000000001" height="43.247149586432755" data-palette-color="#444444"><path d="M13.2-26.95Q15.3-26.95 17.05-26.25 18.8-25.55 20.4-24.1L20.4-24.1 18.4-21.4Q17.2-22.35 16-22.83 14.8-23.3 13.4-23.3L13.4-23.3Q10.45-23.3 8.83-20.8 7.2-18.3 7.2-13L7.2-13Q7.2-3.1 13.4-3.1L13.4-3.1Q14.8-3.1 15.95-3.58 17.1-4.05 18.4-5L18.4-5 20.5-2.25Q17.3 0.65 13.25 0.65L13.25 0.65Q8.2 0.65 5.33-2.85 2.45-6.35 2.45-12.95L2.45-12.95Q2.45-17.25 3.78-20.4 5.1-23.55 7.53-25.25 9.95-26.95 13.2-26.95L13.2-26.95ZM43.5-26.3L43.5 0 39.6 0 39.35-3.95Q36.6 0.65 32 0.65L32 0.65Q28.85 0.65 27.05-1.4 25.25-3.45 25.25-6.95L25.25-6.95 25.25-26.3 29.75-26.3 29.75-7.35Q29.75-5.05 30.62-3.98 31.5-2.9 33.25-2.9L33.25-2.9Q36.6-2.9 39-7.3L39-7.3 39-26.3 43.5-26.3ZM51.59-26.3L56.09-26.3 56.09 0 51.59 0 51.59-26.3ZM53.84-38.7Q55.15-38.7 55.97-37.85 56.8-37 56.8-35.75L56.8-35.75Q56.8-34.5 56-33.68 55.2-32.85 53.84-32.85L53.84-32.85Q52.55-32.85 51.72-33.68 50.9-34.5 50.9-35.75L50.9-35.75Q50.9-37 51.72-37.85 52.55-38.7 53.84-38.7L53.84-38.7ZM70.99-26.95Q75.54-26.95 79.09-23.95L79.09-23.95 77.19-21.3Q75.59-22.4 74.19-22.95 72.79-23.5 71.24-23.5L71.24-23.5Q69.19-23.5 68.02-22.53 66.84-21.55 66.84-19.85L66.84-19.85Q66.84-18.2 67.97-17.25 69.09-16.3 72.24-15.3L72.24-15.3Q76.19-14.05 77.99-12.25 79.79-10.45 79.79-7.3L79.79-7.3Q79.79-3.6 77.09-1.48 74.39 0.65 70.34 0.65L70.34 0.65Q64.99 0.65 61.29-2.9L61.29-2.9 63.59-5.4Q66.74-2.85 70.24-2.85L70.24-2.85Q72.44-2.85 73.79-3.95 75.14-5.05 75.14-7L75.14-7Q75.14-8.4 74.67-9.25 74.19-10.1 72.97-10.78 71.74-11.45 69.39-12.2L69.39-12.2Q65.64-13.45 63.99-15.2 62.34-16.95 62.34-19.65L62.34-19.65Q62.34-21.75 63.44-23.4 64.54-25.05 66.49-26 68.44-26.95 70.99-26.95L70.99-26.95ZM85.54-26.3L90.04-26.3 90.04 0 85.54 0 85.54-26.3ZM87.79-38.7Q89.09-38.7 89.92-37.85 90.74-37 90.74-35.75L90.74-35.75Q90.74-34.5 89.94-33.68 89.14-32.85 87.79-32.85L87.79-32.85Q86.49-32.85 85.67-33.68 84.84-34.5 84.84-35.75L84.84-35.75Q84.84-37 85.67-37.85 86.49-38.7 87.79-38.7L87.79-38.7ZM109.89-26.95Q113.04-26.95 114.81-24.88 116.59-22.8 116.59-19.15L116.59-19.15 116.59 0 112.09 0 112.09-18.6Q112.09-21.15 111.24-22.28 110.39-23.4 108.64-23.4L108.64-23.4Q105.34-23.4 102.64-18.7L102.64-18.7 102.64 0 98.14 0 98.14-26.3 102.04-26.3 102.39-22.4Q105.44-26.95 109.89-26.95L109.89-26.95ZM140.88-6Q140.88-4.4 141.34-3.63 141.78-2.85 142.74-2.45L142.74-2.45 141.78 0.6Q139.84 0.3 138.74-0.6 137.63-1.5 137.19-3.35L137.19-3.35Q134.63 0.65 130.03 0.65L130.03 0.65Q126.53 0.65 124.48-1.53 122.44-3.7 122.44-7.35L122.44-7.35Q122.44-11.55 125.19-13.75 127.94-15.95 133.03-15.95L133.03-15.95 136.44-15.95 136.44-18.2Q136.44-20.95 135.31-22.18 134.19-23.4 131.63-23.4L131.63-23.4Q128.88-23.4 125.23-22L125.23-22 124.14-25.15Q128.53-26.95 132.34-26.95L132.34-26.95Q140.88-26.95 140.88-18.4L140.88-18.4 140.88-6ZM131.09-2.75Q134.59-2.75 136.44-6.85L136.44-6.85 136.44-13.05 133.53-13.05Q127.03-13.05 127.03-7.6L127.03-7.6Q127.03-5.25 128.09-4 129.13-2.75 131.09-2.75L131.09-2.75ZM159.78-4.05L161.43-1.15Q158.93 0.65 155.88 0.65L155.88 0.65Q152.68 0.65 150.96-1.2 149.23-3.05 149.23-6.4L149.23-6.4 149.23-22.9 145.48-22.9 145.48-26.3 149.23-26.3 149.23-32.35 153.73-32.9 153.73-26.3 159.53-26.3 159.03-22.9 153.73-22.9 153.73-6.45Q153.73-3.05 156.58-3.05L156.58-3.05Q157.43-3.05 158.16-3.3 158.88-3.55 159.78-4.05L159.78-4.05ZM165.33-26.3L169.83-26.3 169.83 0 165.33 0 165.33-26.3ZM167.58-38.7Q168.88-38.7 169.71-37.85 170.53-37 170.53-35.75L170.53-35.75Q170.53-34.5 169.73-33.68 168.93-32.85 167.58-32.85L167.58-32.85Q166.28-32.85 165.46-33.68 164.63-34.5 164.63-35.75L164.63-35.75Q164.63-37 165.46-37.85 166.28-38.7 167.58-38.7L167.58-38.7ZM189.68-26.95Q192.83-26.95 194.6-24.88 196.38-22.8 196.38-19.15L196.38-19.15 196.38 0 191.88 0 191.88-18.6Q191.88-21.15 191.03-22.28 190.18-23.4 188.43-23.4L188.43-23.4Q185.13-23.4 182.43-18.7L182.43-18.7 182.43 0 177.93 0 177.93-26.3 181.83-26.3 182.18-22.4Q185.23-26.95 189.68-26.95L189.68-26.95Z" opacity="1" transform="matrix(1,0,0,1,0,0)" fill="#000000" class="wordmark-text-0" data-fill-palette-color="quaternary" id="text-0"></path></svg></g></svg></g></svg></g></svg></g><g transform="matrix(1,0,0,1,66.25955538098394,0)"><svg viewBox="0 0 80.6393304651892 59.76756072845007" height="59.76756072845007" width="80.6393304651892"><g><svg xmlns="http://www.w3.org/2000/svg" xmlns:xlink="http://www.w3.org/1999/xlink" version="1.1" x="0" y="0" viewBox="164.5 245 688.1 510" style="enable-background:new 0 0 1000 1000;" xml:space="preserve" height="59.76756072845007" width="80.6393304651892" class="icon-icon-0" data-fill-palette-color="quaternary" id="icon-0"><g fill="#444444" data-fill-palette-color="quaternary"><path d="M813.7 711.8l-26.9-4.8c0.3-4.7 0.5-9.8 0.5-15.4 0.1-12.9-0.8-27.9-3.3-43.8-1.3-7.9-3-16-5.3-24.1-2.3-8.1-5-16.2-8.3-24.1-3.3-7.9-7.1-15.5-11.4-22.7-4.3-7.2-9-13.9-14-20.1-5-6.1-10.2-11.7-15.4-16.6-5.2-4.9-10.5-9.3-15.5-12.9-5-3.7-9.8-6.9-14.1-9.4-1.1-0.7-2.1-1.3-3.1-1.9-1-0.6-2-1.1-3-1.7-1.9-1.1-3.6-2-5.3-2.8-1.6-0.8-3-1.5-4.3-2.2-1.3-0.6-2.3-1.1-3.2-1.5-1.6-0.8-2.6-1.2-2.7-1.2 0.1 0.1 1 0.6 2.5 1.5 0.8 0.5 1.8 1.1 3 1.9 1.2 0.7 2.5 1.6 4 2.6 1.5 1 3.1 2.1 4.9 3.4 0.9 0.6 1.8 1.3 2.7 2 0.9 0.7 1.9 1.4 2.9 2.2 3.9 3 8.2 6.6 12.7 10.8 4.5 4.1 9 8.9 13.4 14.1 4.5 5.3 8.8 11.1 12.8 17.4 4 6.3 7.7 13.1 10.9 20.2 3.2 7.1 5.9 14.5 8.1 22.1 2.2 7.5 3.9 15.2 5.1 22.9 1.2 7.6 1.9 15.2 2.3 22.5 0.7 14.7-0.1 28.4-1.5 40-0.5 4.3-1.1 8.4-1.8 12.1L201.5 601.6C228.2 453.3 386.9 357.7 556 388.1 725 418.6 840.4 563.5 813.7 711.8z" fill="#000000" data-fill-palette-color="quaternary"></path><path d="M564.4 298.2c-21.2-3.8-41.5 10.3-45.3 31.5-3.8 21.2 10.3 41.5 31.5 45.3 21.2 3.8 41.5-10.3 45.3-31.5C599.7 322.3 585.6 302 564.4 298.2zM585.2 325.3c-1.6 9.1-10.3 15.1-19.4 13.5-9.1-1.6-15.1-10.3-13.5-19.4 1.6-9.1 10.3-15.1 19.4-13.5C580.8 307.5 586.8 316.2 585.2 325.3z" fill="#000000" data-fill-palette-color="quaternary"></path><path d="M841.6 755H175.5c-6.1 0-11-5-11-11l0 0c0-6.1 5-11 11-11h666.1c6.1 0 11 5 11 11l0 0C852.6 750.1 847.7 755 841.6 755z" fill="#000000" data-fill-palette-color="quaternary"></path><path d="M200.8 475.3c5.6 14.9 5.6 28.3 1.5 38-3.7 9.7-11.5 15.8-11.1 15.8-0.5 0 2.6-6 1.5-15.8-0.7-9.7-5.5-23.2-11.1-38-5.6-14.9-5.6-28.3-1.5-38 3.7-9.7 11.5-15.8 11.1-15.8 0.5 0-2.6 6-1.5 15.8C190.4 447 195.3 460.4 200.8 475.3z" fill="#000000" data-fill-palette-color="quaternary"></path><path d="M221.8 421.3c5.6 14.9 5.6 28.3 1.5 38-3.7 9.7-11.5 15.8-11.1 15.8-0.5 0 2.6-6 1.5-15.8-0.7-9.7-5.5-23.2-11.1-38-5.6-14.9-5.6-28.3-1.5-38 3.7-9.7 11.5-15.8 11.1-15.8 0.5 0-2.6 6-1.5 15.8C211.4 393 216.3 406.4 221.8 421.3z" fill="#000000" data-fill-palette-color="quaternary"></path><path d="M344.6 298.8c-5.6 14.9-5.6 28.3-1.5 38 3.7 9.7 11.5 15.8 11.1 15.8 0.5 0-2.6-6-1.5-15.8 0.7-9.7 5.5-23.2 11.1-38 5.6-14.9 5.6-28.3 1.5-38-3.7-9.7-11.5-15.8-11.1-15.8-0.5 0 2.6 6 1.5 15.8C355 270.5 350.2 283.9 344.6 298.8z" fill="#000000" data-fill-palette-color="quaternary"></path></g></svg></g></svg></g><g></g></svg></g></svg></g></svg></g></svg></g><defs></defs></svg><rect width="342.8515585177538" height="342.8515585177538" fill="none" stroke="none" visibility="hidden"></rect></g></svg></g></svg>